name C:\Users\antoi\Documents\MyRepositories\upper-imu-dc\Results\main_tracking\Case_79\kinematics.mot
datacolumns 10
datarows 28
range 3.00000000 3.27000000
endheader 
time	clav_prot	clav_elev	scapula_abduction	scapula_elevation	scapula_upward_rot	scapula_winging	plane_elv	shoulder_elv	axial_rot	
          3.00000000	        -23.64884817	        -13.36932246	        -18.76566559	         -7.78440660	          0.61553156	         12.03863135	        -17.89293118	         24.36518102	         41.89882668	
          3.01000000	        -23.52972849	        -13.38370803	        -18.75901509	         -7.78762878	          0.59623112	         12.04802026	        -17.91409198	         24.36967485	         41.73916656	
          3.02000000	        -23.53050996	        -13.39444799	        -18.76522601	         -7.79232971	          0.58231012	         12.05637026	        -17.93738541	         24.38164017	         41.57719548	
          3.03000000	        -23.54548228	        -13.40485428	        -18.79273184	         -7.79964814	          0.57511038	         12.06393169	        -17.96433641	         24.40033539	         41.40885947	
          3.04000000	        -23.54597566	        -13.41776553	        -18.79117919	         -7.81069929	          0.57687654	         12.07061144	        -17.99492392	         24.42464212	         41.23341855	
          3.05000000	        -23.55614952	        -13.43137434	        -18.80130425	         -7.82608415	          0.58935038	         12.07615031	        -18.03025713	         24.45423213	         41.05157509	
          3.06000000	        -23.59209359	        -13.44387899	        -18.85033609	         -7.84569104	          0.61360932	         12.08004107	        -18.07040526	         24.48927666	         40.86264103	
          3.07000000	        -23.63461739	        -13.45630000	        -18.90507632	         -7.86927527	          0.65022858	         12.08189199	        -18.11495267	         24.53037190	         40.66677084	
          3.08000000	        -23.68354686	        -13.46822470	        -18.96499588	         -7.89665482	          0.69978909	         12.08134414	        -18.16352524	         24.57800871	         40.46409892	
          3.09000000	        -23.73865649	        -13.47925705	        -19.02944991	         -7.92766775	          0.76291224	         12.07803326	        -18.21599626	         24.63256424	         40.25461009	
          3.10000000	        -23.79982709	        -13.48905955	        -19.09796793	         -7.96219864	          0.84019995	         12.07162935	        -18.27233152	         24.69432960	         40.03818056	
          3.11000000	        -23.86700119	        -13.49734195	        -19.17020600	         -8.00014860	          0.93217341	         12.06183936	        -18.33253762	         24.76356867	         39.81467150	
          3.12000000	        -23.94018406	        -13.50387849	        -19.24593066	         -8.04145894	          1.03930674	         12.04841012	        -18.39674101	         24.84048814	         39.58378615	
          3.13000000	        -24.01943229	        -13.50851070	        -19.32501245	         -8.08610380	          1.16199624	         12.03113463	        -18.46514973	         24.92525415	         39.34512817	
          3.14000000	        -24.10486821	        -13.51115850	        -19.40744354	         -8.13410331	          1.30057213	         12.00985612	        -18.53805464	         25.01796609	         39.09817801	
          3.15000000	        -24.19664719	        -13.51181163	        -19.49329506	         -8.18550665	          1.45527153	         11.98446696	        -18.61577841	         25.11866807	         38.84238865	
          3.16000000	        -24.29491127	        -13.51051314	        -19.58265697	         -8.24036522	          1.62620237	         11.95490503	        -18.69861005	         25.22736984	         38.57730908	
          3.17000000	        -24.39977416	        -13.50735218	        -19.67561721	         -8.29872404	          1.81333702	         11.92115114	        -18.78677106	         25.34403655	         38.30262751	
          3.18000000	        -24.51129154	        -13.50244863	        -19.77222490	         -8.36060124	          2.01648974	         11.88322516	        -18.88036759	         25.46859463	         38.01824738	
          3.19000000	        -24.62945608	        -13.49594463	        -19.87248458	         -8.42598169	          2.23531816	         11.84118250	        -18.97937302	         25.60091829	         37.72429863	
          3.20000000	        -24.75417003	        -13.48798412	        -19.97632398	         -8.49479361	          2.46930364	         11.79510787	        -19.08359440	         25.74084296	         37.42120047	
          3.21000000	        -24.88524888	        -13.47870235	        -20.08359908	         -8.56690484	          2.71776420	         11.74510954	        -19.19267599	         25.88815730	         37.10964048	
          3.22000000	        -25.02241920	        -13.46821122	        -20.19409033	         -8.64211523	          2.97986666	         11.69131137	        -19.30610120	         26.04260896	         36.79057007	
          3.23000000	        -25.16533235	        -13.45659086	        -20.30751548	         -8.72016108	          3.25465959	         11.63384455	        -19.42321338	         26.20390042	         36.46515516	
          3.24000000	        -25.31357443	        -13.44387928	        -20.42353371	         -8.80071881	          3.54111007	         11.57283710	        -19.54323145	         26.37169496	         36.13473718	
          3.25000000	        -25.46668695	        -13.43006511	        -20.54175664	         -8.88341795	          3.83816229	         11.50840071	        -19.66527492	         26.54562137	         35.80077092	
          3.26000000	        -25.62418859	        -13.41508572	        -20.66175837	         -8.96785841	          4.14479754	         11.44061928	        -19.78838966	         26.72527630	         35.46475493	
          3.27000000	        -25.78559247	        -13.39882672	        -20.78307882	         -9.05362696	          4.46008889	         11.36953880	        -19.91156891	         26.91023140	         35.12817633	
